<mxfile host="65bd71144e">
    <diagram id="SOID7gBXRQTJEMHiyYnY" name="ページ1">
        <mxGraphModel dx="438" dy="530" grid="1" gridSize="10" guides="1" tooltips="1" connect="1" arrows="1" fold="1" page="1" pageScale="1" pageWidth="850" pageHeight="1100" math="0" shadow="0">
            <root>
                <mxCell id="0"/>
                <mxCell id="1" parent="0"/>
                <mxCell id="7" value="" style="group" vertex="1" connectable="0" parent="1">
                    <mxGeometry x="50" y="30" width="280" height="330" as="geometry"/>
                </mxCell>
                <mxCell id="2" value="" style="whiteSpace=wrap;html=1;fillColor=none;" vertex="1" parent="7">
                    <mxGeometry width="280" height="330" as="geometry"/>
                </mxCell>
                <mxCell id="4" value="リバーシで学ぶアプリケーション設計入門" style="whiteSpace=wrap;html=1;fillColor=none;" vertex="1" parent="7">
                    <mxGeometry width="280" height="40" as="geometry"/>
                </mxCell>
                <mxCell id="5" value="対戦する" style="rounded=1;whiteSpace=wrap;html=1;fillColor=none;" vertex="1" parent="7">
                    <mxGeometry x="80" y="90" width="120" height="60" as="geometry"/>
                </mxCell>
                <mxCell id="6" value="過去の対戦結果" style="rounded=0;whiteSpace=wrap;html=1;fillColor=none;" vertex="1" parent="7">
                    <mxGeometry x="40" y="170" width="220" height="110" as="geometry"/>
                </mxCell>
                <mxCell id="8" value="" style="group" vertex="1" connectable="0" parent="1">
                    <mxGeometry x="350" y="30" width="280" height="330" as="geometry"/>
                </mxCell>
                <mxCell id="9" value="" style="whiteSpace=wrap;html=1;fillColor=none;" vertex="1" parent="8">
                    <mxGeometry width="280" height="330" as="geometry"/>
                </mxCell>
                <mxCell id="10" value="リバーシで学ぶアプリケーション設計入門" style="whiteSpace=wrap;html=1;fillColor=none;" vertex="1" parent="8">
                    <mxGeometry width="280" height="40" as="geometry"/>
                </mxCell>
                <mxCell id="11" value="白の番はスキップです" style="rounded=1;whiteSpace=wrap;html=1;fillColor=none;" vertex="1" parent="8">
                    <mxGeometry x="60" y="70" width="160" height="30" as="geometry"/>
                </mxCell>
                <mxCell id="12" value="盤面" style="rounded=0;whiteSpace=wrap;html=1;fillColor=none;" vertex="1" parent="8">
                    <mxGeometry x="60" y="110" width="160" height="160" as="geometry"/>
                </mxCell>
                <mxCell id="13" value="次は黒の番" style="rounded=1;whiteSpace=wrap;html=1;fillColor=none;" vertex="1" parent="8">
                    <mxGeometry x="60" y="280" width="160" height="30" as="geometry"/>
                </mxCell>
            </root>
        </mxGraphModel>
    </diagram>
</mxfile>